<svg version="1" xmlns="http://www.w3.org/2000/svg" width="933.333" height="933.333" viewBox="0 0 700.000000 700.000000"><path d="M0 351.5V700h700V3H0v348.5zm375-134.1c12 2.1 27.2 7.3 34.5 11.7 13.3 8 23.1 20.3 27.5 34.4 2.7 8.6 3.9 29.1 2.1 37.6-3.5 16.7-15.9 32.2-32.6 40.6-4.9 2.5-4.9 2.6-2.5 3.6 19.5 7.8 29.4 16.2 36.4 31 5 10.6 6.1 16.4 6 31.7 0 10.8-.5 15.1-2.2 21.3-8.6 30.5-31.2 48.1-68.7 53.8-6.8 1-23 1.4-65.5 1.4h-56.5l-.3-133.5c-.1-73.4 0-134.1.3-134.8.8-2.2 108.4-1.1 121.5 1.2z"/><path d="M301 291.1v38.1l28.8-.5c22.2-.3 30-.8 34.5-2.1 7.6-2.1 12.9-4.9 17.9-9.4 8-7.3 11-14.7 10.9-27.5-.2-21.8-10.1-32.3-33.6-35.7-3.8-.5-18.6-1-32.7-1H301v38.1zM301 404.9V447h30.8c32.2-.1 36.6-.5 46.5-4.9 7.1-3.1 16-12.3 18.6-19.4 4.2-11.4 3.8-27.4-1-38.2-2.6-5.9-7.9-11.9-13.6-15.1-8.8-5.2-12.3-5.7-48-6.1l-33.3-.5v42.1z"/></svg>